<svg id="a" xmlns="http://www.w3.org/2000/svg" width="184" height="48" viewBox="0 0 182 48"><path d="m77.72.4h3.18l4.17,11.91h-2.63l-1.01-3.09h-4.46l-1,3.09h-2.54L77.72.4Zm1.43,1.84l-1.56,5.07h3.21l-1.5-5.07h-.15Z"/><path d="m86.42.4h4.68c2.7,0,4.23,1.03,4.23,3.48,0,1.63-.73,2.66-1.89,3.22-.08.05-.18.08-.28.13l2.55,5.07h-2.59l-2.32-4.7h-2.01v4.7h-2.37V.4Zm2.37,1.89v3.48h2.21c.94,0,1.88-.46,1.88-1.89,0-1.25-1.02-1.59-1.88-1.59h-2.21Z"/><path d="m96.05.4h9.42v1.89h-3.51v10.02h-2.39V2.29h-3.52V.4Z"/><path d="m107.06,9.75c1.12.54,2.11.82,3.28.82,1.66,0,2.31-.59,2.31-1.36,0-.71-.63-1.07-.92-1.22-.94-.46-2.04-.77-3.08-1.18-1.5-.72-2.27-1.4-2.27-3.19,0-2.12,1.6-3.4,4.55-3.4,1.27,0,2.83.25,3.94.89l-.81,1.77c-.79-.46-1.93-.77-3.11-.77-1.53,0-2.16.53-2.16,1.31,0,.39.13.69.38.9.25.2.51.35.76.46.79.34,1.98.72,2.95,1.17,1.17.56,2.14,1.25,2.14,3.12,0,2.12-1.75,3.43-4.63,3.43-1.3,0-2.83-.3-4.2-.97l.89-1.79Z"/><path d="m127.91,3.28c-.64-.77-1.48-1.17-2.65-1.17-2.12,0-3.18,1.48-3.18,4.42,0,2.64,1.06,3.96,3.16,3.96,1.27,0,2.4-.36,3.39-.77l.54,1.84c-1.01.58-2.63.95-4.08.95-1.96,0-3.36-.53-4.22-1.59-.84-1.07-1.27-2.58-1.27-4.55,0-4.09,2.01-6.14,5.57-6.14,1.48,0,3.16.51,4.15,1.68l-1.42,1.38Z"/><path d="m131.11.4h7.68v1.89h-5.27v2.97h5.09v1.84h-5.09v3.33h5.47v1.87h-7.87V.4Z"/><polygon points="148.43 .4 148.43 9.92 144.71 .4 141.21 .4 141.21 12.31 143.59 12.31 143.59 2.79 147.31 12.31 150.81 12.31 150.81 .4 148.43 .4"/><path d="m152.15.4h9.31v1.89h-3.47v10.02h-2.36V2.29h-3.48V.4Z"/><path d="m162.83.4h7.59v1.89h-5.21v2.97h5.03v1.84h-5.03v3.33h5.4v1.87h-7.78V.4Z"/><path d="m172.82.4h4.62c2.67,0,4.18,1.03,4.18,3.48,0,1.63-.72,2.66-1.87,3.22-.08.05-.18.08-.28.13l2.52,5.07h-2.56l-2.3-4.7h-1.99v4.7h-2.34V.4Zm2.34,1.89v3.48h2.18c.93,0,1.86-.46,1.86-1.89,0-1.25-1.01-1.59-1.86-1.59h-2.18Z"/><polygon points="52.31 .43 49.55 .43 49.55 12.35 58.03 12.35 58.03 10.03 52.31 10.03 52.31 .43"/><path d="m64.11,7.81h2.25v2.08c-.42.16-1.22.32-1.99.32-2.49,0-3.31-1.26-3.31-3.82s.79-3.87,3.27-3.87c1.38,0,2.17.43,2.82,1.26l1.72-1.57c-1.05-1.49-2.88-1.95-4.6-1.95-3.87,0-5.9,2.1-5.9,6.12s1.83,6.16,5.88,6.16c1.86,0,3.67-.47,4.66-1.16v-5.78h-4.79v2.22Z"/><path d="m55.54,23.86c-.64-.38-1.34-.63-2.01-.87-1.37-.49-2.55-.92-2.55-2.25,0-1.11,1.01-1.77,2.7-1.77,1.2,0,2.22.35,2.86.65l.05.02.53-1.16-.05-.02c-.98-.47-2.12-.71-3.41-.71-2.62,0-4.18,1.15-4.18,3.08,0,1.54.67,2.21,1.76,2.8h0c.59.29,1.35.59,2.07.88.55.22,1.07.42,1.47.61.72.38,1.08.91,1.08,1.65,0,1.17-.99,1.81-2.8,1.81-1.09,0-2.01-.22-3.09-.73l-.05-.02-.56,1.19.05.02c.99.5,2.34.79,3.7.79,2.64,0,4.21-1.19,4.21-3.19,0-1.5-.66-2.15-1.79-2.78Z"/><polygon points="60.47 24.22 65.84 24.22 65.84 22.99 60.47 22.99 60.47 19.18 66.05 19.18 66.05 17.94 59.01 17.94 59.01 29.64 66.24 29.64 66.24 28.41 60.47 28.41 60.47 24.22"/><path d="m72.58,17.76c-3.52,0-5.15,1.9-5.15,5.97s1.46,6.1,4.74,6.1c3.53,0,5.17-1.9,5.17-5.99s-1.51-6.08-4.75-6.08Zm3.23,5.86c0,3.58-1.04,4.98-3.71,4.98-2.16,0-3.17-1.49-3.17-4.68,0-3.48,1.1-4.96,3.68-4.96,2.15,0,3.2,1.52,3.2,4.66Z"/><path d="m86.24,25.14c0,2.57-.8,3.48-3.07,3.48-1.89,0-2.73-.98-2.73-3.19v-7.49h-1.46v7.22c0,3.23,1.3,4.68,4.21,4.68,3.08,0,4.51-1.46,4.51-4.58v-7.31h-1.46v7.2Z"/><polygon points="91.33 17.94 89.87 17.94 89.87 29.64 96.77 29.64 96.77 28.41 91.33 28.41 91.33 17.94"/><path d="m42.27,24.74c-1.69,1.06-2.22,2.98-3.12,4.93-.38.98-1.51,4.51-2.51,5.39-.59.52-.99.7-1.65,1.13-2.53,1.65-3.24,9.81-6.16,11.81l-9.54-11.5c3.63-2.32,4.23-4.97,6.97-7.4l-8.42-9.83c-3.45.12-6.31,4.43-9.27,4.21L0,13.39c2.29.36,10.48-6.02,13.56-5.54.79.12,1.07.38,1.85.5,1.34.21,5.35-2.18,6.33-2.7,1.69-.76,4.34-2.31,6.27-2.01.78.12,1.13.5,1.91.63,2.17.35,9.25-4.94,12.35-4.2v10c-2.54.06-4.92,2.85-6.57,2.89-.79.02-1.3-.14-2.09-.19-2.59-.2-3.81,1.25-5.41,2.17-.36.24-1.24.67-2.17,1.19l5.26,6.25c1.53-.92,3.56-6.54,5.57-7.45.73-.33,1.2-.16,1.78-.7,1.73-1.63,2.19-2.99,3.63-3.76v14.29Z" fill-rule="evenodd"/></svg>